<svg xmlns="http://www.w3.org/2000/svg" xmlns:xlink="http://www.w3.org/1999/xlink" width="1366" zoomAndPan="magnify" viewBox="0 0 1024.5 576" height="768" preserveAspectRatio="xMidYMid meet" version="1.0"><defs><g/><clipPath id="b4d73dc504"><path d="M 216.316406 93.589844 L 294 93.589844 L 294 172 L 216.316406 172 Z M 216.316406 93.589844 " clip-rule="nonzero"/></clipPath><clipPath id="8a7fe8a08e"><path d="M 246 211 L 281 211 L 281 221.773438 L 246 221.773438 Z M 246 211 " clip-rule="nonzero"/></clipPath></defs><g clip-path="url(#b4d73dc504)"><path fill="#ffbd59" d="M 293.878906 132.3125 C 293.878906 133.582031 293.816406 134.847656 293.691406 136.109375 C 293.566406 137.371094 293.382812 138.625 293.136719 139.867188 C 292.886719 141.113281 292.578125 142.339844 292.210938 143.554688 C 291.84375 144.769531 291.417969 145.960938 290.929688 147.132812 C 290.445312 148.304688 289.902344 149.449219 289.304688 150.570312 C 288.707031 151.6875 288.058594 152.773438 287.351562 153.828125 C 286.648438 154.882812 285.894531 155.902344 285.089844 156.882812 C 284.285156 157.863281 283.433594 158.800781 282.535156 159.695312 C 281.640625 160.59375 280.699219 161.445312 279.71875 162.25 C 278.738281 163.054688 277.722656 163.808594 276.667969 164.511719 C 275.613281 165.21875 274.527344 165.867188 273.410156 166.464844 C 272.289062 167.066406 271.144531 167.605469 269.972656 168.089844 C 268.800781 168.578125 267.609375 169.003906 266.394531 169.371094 C 265.179688 169.738281 263.953125 170.046875 262.707031 170.296875 C 261.464844 170.542969 260.210938 170.730469 258.949219 170.851562 C 257.6875 170.976562 256.421875 171.039062 255.152344 171.039062 C 253.886719 171.039062 252.621094 170.976562 251.359375 170.851562 C 250.09375 170.730469 248.84375 170.542969 247.597656 170.296875 C 246.355469 170.046875 245.125 169.738281 243.910156 169.371094 C 242.699219 169.003906 241.503906 168.578125 240.332031 168.089844 C 239.160156 167.605469 238.015625 167.066406 236.898438 166.464844 C 235.78125 165.867188 234.691406 165.21875 233.636719 164.511719 C 232.582031 163.808594 231.566406 163.054688 230.585938 162.25 C 229.605469 161.445312 228.667969 160.59375 227.769531 159.695312 C 226.875 158.800781 226.023438 157.863281 225.21875 156.882812 C 224.414062 155.902344 223.660156 154.882812 222.953125 153.828125 C 222.25 152.773438 221.597656 151.6875 221 150.570312 C 220.402344 149.449219 219.859375 148.304688 219.375 147.132812 C 218.890625 145.960938 218.464844 144.769531 218.09375 143.554688 C 217.726562 142.339844 217.417969 141.113281 217.171875 139.867188 C 216.925781 138.625 216.738281 137.371094 216.613281 136.109375 C 216.488281 134.847656 216.425781 133.582031 216.425781 132.3125 C 216.425781 131.046875 216.488281 129.78125 216.613281 128.519531 C 216.738281 127.253906 216.925781 126.003906 217.171875 124.757812 C 217.417969 123.515625 217.726562 122.285156 218.09375 121.070312 C 218.464844 119.859375 218.890625 118.664062 219.375 117.492188 C 219.859375 116.320312 220.402344 115.175781 221 114.058594 C 221.597656 112.941406 222.25 111.851562 222.953125 110.796875 C 223.660156 109.746094 224.414062 108.726562 225.21875 107.746094 C 226.023438 106.765625 226.875 105.828125 227.769531 104.929688 C 228.667969 104.035156 229.605469 103.183594 230.585938 102.378906 C 231.566406 101.574219 232.582031 100.820312 233.636719 100.113281 C 234.691406 99.410156 235.78125 98.757812 236.898438 98.160156 C 238.015625 97.5625 239.160156 97.019531 240.332031 96.535156 C 241.503906 96.050781 242.699219 95.625 243.910156 95.253906 C 245.125 94.886719 246.355469 94.578125 247.597656 94.332031 C 248.84375 94.085938 250.09375 93.898438 251.359375 93.773438 C 252.621094 93.648438 253.886719 93.589844 255.152344 93.589844 C 256.421875 93.589844 257.6875 93.648438 258.949219 93.773438 C 260.210938 93.898438 261.464844 94.085938 262.707031 94.332031 C 263.953125 94.578125 265.179688 94.886719 266.394531 95.253906 C 267.609375 95.625 268.800781 96.050781 269.972656 96.535156 C 271.144531 97.019531 272.289062 97.5625 273.410156 98.160156 C 274.527344 98.757812 275.613281 99.410156 276.667969 100.113281 C 277.722656 100.820312 278.738281 101.574219 279.71875 102.378906 C 280.699219 103.183594 281.640625 104.035156 282.535156 104.929688 C 283.433594 105.828125 284.285156 106.765625 285.089844 107.746094 C 285.894531 108.726562 286.648438 109.746094 287.351562 110.796875 C 288.058594 111.851562 288.707031 112.941406 289.304688 114.058594 C 289.902344 115.175781 290.445312 116.320312 290.929688 117.492188 C 291.417969 118.664062 291.84375 119.859375 292.210938 121.070312 C 292.578125 122.285156 292.886719 123.515625 293.136719 124.757812 C 293.382812 126.003906 293.566406 127.253906 293.691406 128.519531 C 293.816406 129.78125 293.878906 131.046875 293.878906 132.3125 Z M 293.878906 132.3125 " fill-opacity="1" fill-rule="nonzero"/></g><path fill="#04182d" d="M 285.582031 213.871094 L 242.015625 213.871094 C 241.273438 213.871094 240.675781 213.273438 240.675781 212.53125 L 240.675781 187.65625 C 240.675781 183.371094 238.691406 179.335938 235.234375 176.589844 C 222.835938 166.734375 216.4375 151.40625 218.121094 135.585938 C 220.433594 113.835938 238.667969 96.292969 260.53125 94.78125 C 273.425781 93.890625 285.726562 98.234375 295.136719 107.015625 C 304.417969 115.675781 309.742188 127.921875 309.742188 140.613281 C 309.742188 154.722656 303.386719 167.847656 292.3125 176.625 C 288.886719 179.339844 286.921875 183.363281 286.921875 187.65625 L 286.921875 212.53125 C 286.921875 213.273438 286.320312 213.871094 285.582031 213.871094 Z M 243.355469 211.191406 L 284.242188 211.191406 L 284.242188 187.65625 C 284.242188 182.539062 286.578125 177.753906 290.648438 174.523438 C 301.078125 166.257812 307.0625 153.898438 307.0625 140.613281 C 307.0625 128.664062 302.046875 117.132812 293.308594 108.976562 C 284.449219 100.707031 272.882812 96.621094 260.71875 97.457031 C 240.128906 98.878906 222.964844 115.394531 220.785156 135.867188 C 219.203125 150.773438 225.226562 165.210938 236.902344 174.492188 C 241.003906 177.75 243.355469 182.546875 243.355469 187.65625 Z M 243.355469 211.191406 " fill-opacity="1" fill-rule="nonzero"/><g clip-path="url(#8a7fe8a08e)"><path fill="#04182d" d="M 263.472656 221.566406 C 253.957031 221.566406 246.503906 217.597656 246.503906 212.53125 C 246.503906 211.792969 247.105469 211.191406 247.84375 211.191406 C 248.585938 211.191406 249.183594 211.792969 249.183594 212.53125 C 249.183594 215.535156 255.050781 218.886719 263.472656 218.886719 C 271.890625 218.886719 277.757812 215.535156 277.757812 212.53125 C 277.757812 211.792969 278.359375 211.191406 279.097656 211.191406 C 279.835938 211.191406 280.4375 211.792969 280.4375 212.53125 C 280.4375 217.597656 272.984375 221.566406 263.472656 221.566406 Z M 263.472656 221.566406 " fill-opacity="1" fill-rule="nonzero"/></g><path fill="#04182d" d="M 236.828125 188.996094 C 236.128906 188.996094 235.539062 188.457031 235.492188 187.75 C 235.441406 187.011719 235.996094 186.371094 236.734375 186.320312 L 290.675781 182.582031 C 291.433594 182.539062 292.050781 183.089844 292.105469 183.828125 C 292.15625 184.566406 291.597656 185.203125 290.859375 185.257812 L 236.921875 188.992188 C 236.890625 188.996094 236.859375 188.996094 236.828125 188.996094 Z M 236.828125 188.996094 " fill-opacity="1" fill-rule="nonzero"/><path fill="#04182d" d="M 236.828125 197.566406 C 236.128906 197.566406 235.539062 197.027344 235.492188 196.320312 C 235.441406 195.582031 235.996094 194.941406 236.734375 194.890625 L 290.675781 191.152344 C 291.433594 191.113281 292.050781 191.65625 292.105469 192.394531 C 292.15625 193.136719 291.597656 193.773438 290.859375 193.824219 L 236.921875 197.5625 C 236.890625 197.566406 236.859375 197.566406 236.828125 197.566406 Z M 236.828125 197.566406 " fill-opacity="1" fill-rule="nonzero"/><path fill="#04182d" d="M 236.828125 206.136719 C 236.128906 206.136719 235.539062 205.597656 235.492188 204.890625 C 235.441406 204.152344 235.996094 203.511719 236.734375 203.460938 L 290.675781 199.722656 C 291.433594 199.671875 292.050781 200.226562 292.105469 200.964844 C 292.15625 201.703125 291.597656 202.34375 290.859375 202.394531 L 236.921875 206.132812 C 236.890625 206.136719 236.859375 206.136719 236.828125 206.136719 Z M 236.828125 206.136719 " fill-opacity="1" fill-rule="nonzero"/><path stroke-linecap="butt" transform="matrix(1.279795, 0, 0, 1.279795, 224.097585, 182.002783)" fill="none" stroke-linejoin="miter" d="M 30.437061 42.982617 C 20.593565 42.982617 15.526835 49.251932 15.526835 58.805465 L 15.526835 134.672111 C 15.526835 143.932628 20.593565 150.494959 30.437061 150.494959 C 40.317184 150.494959 45.383914 143.932628 45.383914 134.672111 L 45.383914 58.805465 C 45.383914 49.251932 40.317184 42.982617 30.437061 42.982617 Z M 30.437061 42.982617 " stroke="#000000" stroke-width="2.706624" stroke-opacity="1" stroke-miterlimit="4"/><g fill="#ffde59" fill-opacity="1"><g transform="translate(624.781742, 363.037045)"><g><path d="M -116.804688 -23.03125 C -116.804688 -12.175781 -109.894531 -6.582031 -99.367188 -6.582031 L -15.792969 -6.582031 C -5.59375 -6.582031 1.644531 -12.175781 1.644531 -23.03125 C 1.644531 -33.890625 -5.59375 -39.484375 -15.792969 -39.484375 L -99.367188 -39.484375 C -109.894531 -39.484375 -116.804688 -33.890625 -116.804688 -23.03125 Z M -116.804688 -23.03125 "/></g></g></g><g fill="#5ce1e6" fill-opacity="1"><g transform="translate(286.811964, 380.018327)"><g><path d="M 23.03125 -116.804688 C 12.175781 -116.804688 6.582031 -109.894531 6.582031 -99.367188 L 6.582031 -15.792969 C 6.582031 -5.59375 12.175781 1.644531 23.03125 1.644531 C 33.890625 1.644531 39.484375 -5.59375 39.484375 -15.792969 L 39.484375 -99.367188 C 39.484375 -109.894531 33.890625 -116.804688 23.03125 -116.804688 Z M 23.03125 -116.804688 "/></g></g></g><g fill="#ff8bd2" fill-opacity="1"><g transform="translate(728.131353, 300.991564)"><g><path d="M -29.488281 -115.34375 C -39.289062 -110.671875 -41.363281 -102.027344 -36.832031 -92.523438 L -0.859375 -17.085938 C 3.53125 -7.882812 11.695312 -3.753906 21.496094 -8.429688 C 31.296875 -13.101562 33.230469 -22.042969 28.839844 -31.25 L -7.132812 -106.683594 C -11.664062 -116.1875 -19.6875 -120.015625 -29.488281 -115.34375 Z M -29.488281 -115.34375 "/></g></g></g><path stroke-linecap="butt" transform="matrix(1.279795, 0, 0, 1.279795, 370.516823, 149.921283)" fill="none" stroke-linejoin="miter" d="M 33.46695 44.477803 L 22.384242 44.477803 C 11.338161 44.477803 5.978416 51.330097 5.978416 61.793199 L 5.978416 131.683546 C 5.978416 142.146648 11.338161 148.998943 22.384242 148.998943 L 65.695624 148.998943 C 95.262739 148.998943 111.085586 123.625615 111.085586 96.720059 C 111.085586 69.851131 95.262739 44.477803 65.695624 44.477803 Z M 38.826696 119.724843 L 38.826696 73.751902 L 58.223724 73.751902 C 69.596396 73.751902 78.237306 81.809834 78.237306 96.720059 C 78.237306 111.666912 69.596396 119.724843 58.223724 119.724843 Z M 137.368484 44.477803 C 126.322402 44.477803 120.962657 51.330097 120.962657 61.793199 L 120.962657 131.683546 C 120.962657 142.146648 126.322402 148.998943 137.368484 148.998943 L 189.064388 148.998943 C 195.919734 148.998943 201.60607 143.312607 201.60607 136.45726 C 201.60607 129.604966 195.919734 123.625615 189.064388 123.625615 L 153.810937 123.625615 L 153.810937 109.588332 L 174.117535 109.588332 C 180.969829 109.588332 186.659217 103.60898 186.659217 96.720059 C 186.659217 89.864713 180.969829 83.885362 174.117535 83.885362 L 153.810937 83.885362 L 153.810937 69.851131 L 189.064388 69.851131 C 195.919734 69.851131 201.60607 63.871779 201.60607 57.016433 C 201.60607 50.127512 195.919734 44.477803 189.064388 44.477803 Z M 258.625092 42.982202 C 258.332077 42.982202 258.185569 42.982202 257.895605 42.982202 C 251.623238 42.982202 245.936902 46.699839 243.421851 52.532682 L 208.458364 126.90678 C 207.255779 129.275324 206.6728 131.683546 206.6728 134.05209 C 206.6728 143.019591 214.1447 150.494543 223.115253 150.494543 C 229.967547 150.494543 235.656935 147.506394 238.025479 140.944063 L 242.072758 129.604966 L 274.481514 129.604966 L 278.348711 140.944063 C 280.753882 147.506394 286.40359 150.494543 293.295564 150.494543 C 302.226438 150.494543 309.70139 143.019591 309.70139 134.05209 C 309.70139 131.683546 309.118411 129.275324 307.915826 126.90678 L 272.988966 52.532682 C 270.29078 46.846347 264.894407 43.272166 258.625092 42.982202 Z M 265.660521 104.195012 L 250.857124 104.195012 L 258.332077 83.012419 Z M 265.660521 104.195012 " stroke="#000000" stroke-width="2.706624" stroke-opacity="1" stroke-miterlimit="4"/></svg>