<svg xmlns="http://www.w3.org/2000/svg" xmlns:xlink="http://www.w3.org/1999/xlink" width="500" zoomAndPan="magnify" viewBox="0 0 375 374.999991" height="500" preserveAspectRatio="xMidYMid meet" version="1.0"><defs><clipPath id="d71fbad257"><path d="M 141 204 L 282 204 L 282 342.210938 L 141 342.210938 Z M 141 204 " clip-rule="nonzero"/></clipPath><clipPath id="bfda8ee8ea"><path d="M 154 269 L 239 269 L 239 342.210938 L 154 342.210938 Z M 154 269 " clip-rule="nonzero"/></clipPath><clipPath id="9d866aadf3"><path d="M 121 32.460938 L 141 32.460938 L 141 52 L 121 52 Z M 121 32.460938 " clip-rule="nonzero"/></clipPath></defs><path fill="#f9ed32" d="M 194.011719 75.171875 C 194.566406 75.171875 195.113281 75.144531 195.664062 75.09375 C 196.210938 75.039062 196.757812 74.957031 197.296875 74.851562 C 197.835938 74.742188 198.371094 74.609375 198.898438 74.449219 C 199.425781 74.289062 199.945312 74.105469 200.453125 73.894531 C 200.964844 73.683594 201.460938 73.449219 201.945312 73.191406 C 202.433594 72.929688 202.90625 72.648438 203.363281 72.34375 C 203.824219 72.035156 204.265625 71.710938 204.691406 71.359375 C 205.117188 71.011719 205.523438 70.644531 205.914062 70.253906 C 206.304688 69.863281 206.675781 69.457031 207.023438 69.03125 C 207.375 68.605469 207.703125 68.167969 208.007812 67.707031 C 208.316406 67.25 208.597656 66.78125 208.859375 66.296875 C 209.117188 65.808594 209.355469 65.3125 209.566406 64.804688 C 209.777344 64.296875 209.960938 63.777344 210.121094 63.253906 C 210.28125 62.726562 210.417969 62.195312 210.523438 61.652344 C 210.632812 61.113281 210.714844 60.570312 210.769531 60.023438 C 210.820312 59.476562 210.847656 58.925781 210.851562 58.375 C 210.851562 57.828125 210.824219 57.277344 210.769531 56.730469 C 210.714844 56.183594 210.636719 55.636719 210.527344 55.097656 C 210.421875 54.558594 210.289062 54.027344 210.128906 53.5 C 209.96875 52.972656 209.785156 52.453125 209.574219 51.945312 C 209.363281 51.4375 209.128906 50.941406 208.867188 50.457031 C 208.609375 49.96875 208.328125 49.5 208.019531 49.039062 C 207.714844 48.582031 207.386719 48.140625 207.039062 47.714844 C 206.6875 47.289062 206.320312 46.882812 205.929688 46.492188 C 205.539062 46.101562 205.132812 45.734375 204.707031 45.382812 C 204.28125 45.035156 203.839844 44.707031 203.382812 44.402344 C 202.925781 44.09375 202.453125 43.8125 201.964844 43.550781 C 201.480469 43.292969 200.984375 43.054688 200.472656 42.84375 C 199.964844 42.632812 199.445312 42.449219 198.917969 42.289062 C 198.390625 42.128906 197.859375 41.992188 197.316406 41.886719 C 196.777344 41.777344 196.234375 41.695312 195.683594 41.640625 C 195.136719 41.585938 194.585938 41.558594 194.035156 41.558594 C 193.484375 41.558594 192.933594 41.585938 192.386719 41.636719 C 191.835938 41.691406 191.292969 41.769531 190.75 41.878906 C 190.210938 41.984375 189.675781 42.117188 189.148438 42.277344 C 188.621094 42.433594 188.101562 42.617188 187.59375 42.828125 C 187.082031 43.039062 186.585938 43.273438 186.097656 43.53125 C 185.613281 43.789062 185.140625 44.070312 184.679688 44.375 C 184.222656 44.683594 183.78125 45.007812 183.351562 45.355469 C 182.925781 45.707031 182.519531 46.074219 182.128906 46.460938 C 181.738281 46.851562 181.367188 47.257812 181.015625 47.683594 C 180.667969 48.105469 180.335938 48.546875 180.03125 49.003906 C 179.722656 49.460938 179.441406 49.933594 179.179688 50.417969 C 178.917969 50.902344 178.683594 51.398438 178.46875 51.90625 C 178.257812 52.414062 178.070312 52.929688 177.910156 53.457031 C 177.75 53.984375 177.617188 54.515625 177.507812 55.054688 C 177.398438 55.597656 177.316406 56.140625 177.261719 56.6875 C 177.207031 57.234375 177.179688 57.78125 177.175781 58.332031 C 177.175781 58.882812 177.203125 59.433594 177.257812 59.980469 C 177.3125 60.53125 177.394531 61.074219 177.5 61.613281 C 177.609375 62.15625 177.742188 62.6875 177.902344 63.214844 C 178.0625 63.742188 178.246094 64.261719 178.457031 64.769531 C 178.667969 65.277344 178.90625 65.777344 179.164062 66.261719 C 179.425781 66.75 179.707031 67.21875 180.011719 67.679688 C 180.320312 68.136719 180.648438 68.578125 180.996094 69.003906 C 181.347656 69.429688 181.714844 69.839844 182.105469 70.230469 C 182.496094 70.617188 182.902344 70.988281 183.332031 71.339844 C 183.757812 71.6875 184.199219 72.015625 184.65625 72.324219 C 185.117188 72.628906 185.589844 72.914062 186.074219 73.175781 C 186.5625 73.433594 187.058594 73.671875 187.566406 73.882812 C 188.078125 74.09375 188.597656 74.277344 189.125 74.441406 C 189.652344 74.601562 190.1875 74.734375 190.726562 74.84375 C 191.269531 74.953125 191.8125 75.035156 192.363281 75.089844 C 192.910156 75.144531 193.460938 75.171875 194.011719 75.171875 Z M 194.011719 75.171875 " fill-opacity="0.78" fill-rule="evenodd"/><path fill="#662d91" d="M 275.570312 88.132812 C 280.144531 93.425781 283.925781 99.234375 286.917969 105.558594 C 289.90625 111.882812 291.996094 118.488281 293.183594 125.378906 C 296.597656 145.300781 291.390625 163.746094 295.042969 176.144531 C 295.898438 178.925781 297.042969 181.578125 298.476562 184.109375 C 297.625 184.605469 296.757812 185.078125 295.878906 185.523438 C 294.996094 185.96875 294.105469 186.390625 293.199219 186.785156 C 292.296875 187.179688 291.382812 187.550781 290.457031 187.890625 C 289.53125 188.234375 288.597656 188.550781 287.652344 188.839844 C 286.710938 189.128906 285.757812 189.390625 284.800781 189.625 C 283.84375 189.859375 282.878906 190.066406 281.90625 190.246094 C 280.9375 190.425781 279.960938 190.578125 278.984375 190.699219 C 278.003906 190.824219 277.023438 190.917969 276.039062 190.988281 C 275.050781 191.054688 274.066406 191.09375 273.078125 191.105469 C 272.09375 191.117188 271.105469 191.097656 270.121094 191.054688 C 269.136719 191.007812 268.152344 190.933594 267.167969 190.832031 C 266.1875 190.730469 265.210938 190.601562 264.234375 190.441406 C 263.261719 190.285156 262.292969 190.097656 261.328125 189.886719 C 260.367188 189.671875 259.410156 189.429688 258.460938 189.164062 C 257.507812 188.894531 256.570312 188.601562 255.636719 188.277344 C 254.703125 187.957031 253.78125 187.609375 252.867188 187.234375 C 251.953125 186.859375 251.054688 186.457031 250.164062 186.03125 C 249.273438 185.605469 248.398438 185.152344 247.535156 184.675781 C 246.667969 184.199219 245.820312 183.699219 244.984375 183.175781 C 244.152344 182.648438 243.332031 182.101562 242.527344 181.527344 C 241.722656 180.957031 240.9375 180.359375 240.167969 179.742188 C 239.398438 179.125 238.648438 178.488281 237.914062 177.828125 C 237.183594 177.167969 236.46875 176.488281 235.777344 175.785156 C 235.082031 175.085938 234.410156 174.363281 233.757812 173.625 C 233.105469 172.886719 232.476562 172.128906 231.867188 171.351562 C 231.257812 170.578125 230.671875 169.785156 230.109375 168.976562 C 229.546875 168.167969 229.007812 167.34375 228.492188 166.503906 C 227.976562 165.660156 227.484375 164.808594 227.019531 163.941406 C 226.550781 163.070312 226.109375 162.191406 225.695312 161.296875 C 225.277344 160.402344 224.886719 159.5 224.523438 158.582031 C 224.160156 157.667969 223.824219 156.742188 223.511719 155.808594 C 223.199219 154.871094 222.917969 153.929688 222.660156 152.976562 C 222.402344 152.027344 222.175781 151.070312 221.972656 150.105469 C 221.773438 149.140625 221.597656 148.171875 221.453125 147.195312 C 221.304688 146.222656 221.1875 145.242188 221.097656 144.261719 C 221.007812 143.28125 220.945312 142.296875 220.914062 141.3125 C 220.878906 140.328125 220.875 139.34375 220.898438 138.359375 C 220.921875 137.375 220.972656 136.390625 221.054688 135.410156 C 221.132812 134.425781 221.242188 133.449219 221.378906 132.472656 C 221.511719 131.496094 221.675781 130.527344 221.867188 129.558594 C 222.0625 128.59375 222.28125 127.632812 222.527344 126.679688 C 222.773438 125.726562 223.046875 124.777344 223.351562 123.839844 C 223.652344 122.902344 223.980469 121.972656 224.335938 121.054688 C 224.6875 120.136719 225.070312 119.226562 225.476562 118.328125 C 225.882812 117.429688 226.316406 116.546875 226.773438 115.671875 C 227.230469 114.800781 227.714844 113.941406 228.222656 113.097656 C 228.726562 112.25 229.257812 111.421875 229.8125 110.605469 C 230.367188 109.792969 230.945312 108.992188 231.546875 108.210938 C 232.148438 107.429688 232.769531 106.664062 233.414062 105.917969 C 234.058594 105.175781 234.726562 104.445312 235.410156 103.738281 C 236.097656 103.03125 236.804688 102.34375 237.53125 101.675781 C 238.257812 101.007812 239 100.363281 239.761719 99.738281 C 240.527344 99.113281 241.308594 98.507812 242.105469 97.929688 C 242.902344 97.347656 243.714844 96.792969 244.546875 96.257812 C 245.375 95.726562 246.21875 95.214844 247.078125 94.730469 C 247.9375 94.246094 248.808594 93.785156 249.695312 93.347656 C 250.578125 92.914062 251.476562 92.503906 252.386719 92.121094 C 253.292969 91.734375 254.214844 91.378906 255.144531 91.046875 C 256.074219 90.714844 257.011719 90.410156 257.957031 90.132812 C 258.90625 89.855469 259.859375 89.605469 260.820312 89.382812 C 261.78125 89.160156 262.75 88.964844 263.722656 88.796875 C 264.695312 88.628906 265.671875 88.488281 266.652344 88.378906 C 267.632812 88.265625 268.613281 88.183594 269.597656 88.125 C 270.585938 88.070312 271.570312 88.042969 272.558594 88.042969 C 273.53125 88.042969 274.554688 88.078125 275.570312 88.132812 Z M 275.570312 88.132812 " fill-opacity="0.78" fill-rule="evenodd"/><path fill="#92278f" d="M 294.1875 134.144531 C 295.269531 150.648438 291.933594 165.589844 295.042969 176.1875 C 300.367188 194.289062 323.964844 210.6875 312.9375 220 C 309.449219 222.792969 303.445312 222.976562 299.925781 225.714844 C 294.320312 230.078125 298.152344 234.800781 298.648438 238.207031 C 298.886719 239.824219 297.417969 242.425781 292.570312 245.582031 C 296.230469 248.277344 295.894531 250.5625 294.589844 252.664062 C 292.804688 253.886719 290.96875 255.023438 289.082031 256.082031 C 287.195312 257.136719 285.261719 258.105469 283.289062 258.984375 C 281.3125 259.867188 279.300781 260.65625 277.253906 261.355469 C 275.207031 262.054688 273.132812 262.660156 271.03125 263.175781 C 268.929688 263.6875 266.808594 264.101562 264.671875 264.425781 C 262.53125 264.746094 260.382812 264.96875 258.222656 265.097656 C 256.0625 265.222656 253.902344 265.253906 251.738281 265.183594 C 249.578125 265.117188 247.421875 264.953125 245.277344 264.6875 C 243.128906 264.425781 240.996094 264.066406 238.882812 263.613281 C 236.765625 263.160156 234.675781 262.609375 232.613281 261.964844 C 230.546875 261.324219 228.515625 260.585938 226.515625 259.761719 C 224.519531 258.933594 222.5625 258.019531 220.644531 257.015625 C 218.730469 256.011719 216.863281 254.925781 215.046875 253.753906 C 213.230469 252.582031 211.46875 251.328125 209.765625 250 C 208.0625 248.667969 206.421875 247.261719 204.84375 245.785156 C 203.269531 244.304688 201.761719 242.757812 200.324219 241.144531 C 198.886719 239.527344 197.527344 237.851562 196.242188 236.113281 C 194.957031 234.378906 193.753906 232.585938 192.632812 230.738281 C 191.511719 228.894531 190.472656 227 189.523438 225.058594 C 188.570312 223.121094 187.710938 221.140625 186.9375 219.125 C 186.167969 217.105469 185.488281 215.058594 184.902344 212.980469 C 184.316406 210.902344 183.824219 208.800781 183.429688 206.675781 C 183.03125 204.554688 182.734375 202.417969 182.53125 200.265625 C 182.328125 198.117188 182.222656 195.960938 182.214844 193.804688 C 182.210938 191.644531 182.300781 189.488281 182.488281 187.335938 C 182.675781 185.183594 182.960938 183.046875 183.339844 180.921875 C 183.722656 178.792969 184.199219 176.691406 184.773438 174.609375 C 185.34375 172.523438 186.007812 170.472656 186.769531 168.449219 C 187.527344 166.425781 188.375 164.441406 189.3125 162.496094 C 190.25 160.550781 191.273438 158.652344 192.382812 156.796875 C 193.492188 154.941406 194.683594 153.144531 195.957031 151.398438 C 197.230469 149.652344 198.578125 147.964844 200.003906 146.339844 C 201.429688 144.71875 202.925781 143.160156 204.492188 141.671875 C 206.058594 140.179688 207.691406 138.765625 209.386719 137.421875 C 211.082031 136.082031 212.832031 134.816406 214.640625 133.632812 C 216.449219 132.449219 218.308594 131.351562 220.21875 130.332031 C 222.128906 129.316406 224.078125 128.390625 226.070312 127.546875 C 228.0625 126.707031 230.089844 125.960938 232.152344 125.300781 C 234.210938 124.644531 236.296875 124.082031 238.410156 123.613281 C 240.523438 123.144531 242.652344 122.769531 244.796875 122.492188 C 246.941406 122.21875 249.09375 122.039062 251.257812 121.953125 C 253.417969 121.871094 255.578125 121.886719 257.738281 122 C 259.902344 122.113281 262.050781 122.320312 264.191406 122.628906 C 266.335938 122.933594 268.457031 123.335938 270.5625 123.835938 C 272.667969 124.335938 274.746094 124.925781 276.796875 125.613281 C 278.847656 126.296875 280.863281 127.074219 282.84375 127.941406 C 284.828125 128.808594 286.765625 129.765625 288.660156 130.808594 C 290.554688 131.851562 292.398438 132.976562 294.1875 134.1875 Z M 294.1875 134.144531 " fill-opacity="0.78" fill-rule="evenodd"/><g clip-path="url(#d71fbad257)"><path fill="#007fc6" d="M 278.820312 292.488281 C 251.554688 303.570312 215.050781 266.398438 210.136719 342.210938 C 192.410156 330.589844 173.621094 321.042969 153.773438 313.578125 C 152.957031 312.375 152.179688 311.152344 151.4375 309.902344 C 150.695312 308.652344 149.996094 307.382812 149.332031 306.089844 C 148.671875 304.796875 148.050781 303.484375 147.472656 302.152344 C 146.894531 300.820312 146.355469 299.472656 145.863281 298.109375 C 145.367188 296.742188 144.917969 295.363281 144.507812 293.972656 C 144.101562 292.578125 143.734375 291.171875 143.414062 289.757812 C 143.09375 288.339844 142.820312 286.917969 142.589844 285.484375 C 142.359375 284.050781 142.171875 282.613281 142.03125 281.167969 C 141.890625 279.722656 141.792969 278.273438 141.746094 276.824219 C 141.695312 275.371094 141.691406 273.921875 141.730469 272.472656 C 141.769531 271.019531 141.855469 269.570312 141.988281 268.125 C 142.121094 266.679688 142.296875 265.238281 142.519531 263.804688 C 142.742188 262.371094 143.007812 260.945312 143.316406 259.527344 C 143.628906 258.109375 143.984375 256.703125 144.382812 255.304688 C 144.78125 253.910156 145.226562 252.527344 145.710938 251.160156 C 146.195312 249.792969 146.726562 248.441406 147.296875 247.105469 C 147.867188 245.769531 148.476562 244.453125 149.128906 243.15625 C 149.78125 241.859375 150.476562 240.582031 151.207031 239.332031 C 151.941406 238.078125 152.714844 236.847656 153.523438 235.640625 C 154.332031 234.433594 155.179688 233.257812 156.0625 232.105469 C 156.945312 230.949219 157.867188 229.828125 158.820312 228.730469 C 159.773438 227.636719 160.761719 226.570312 161.78125 225.539062 C 162.804688 224.503906 163.855469 223.503906 164.9375 222.535156 C 166.023438 221.566406 167.136719 220.632812 168.277344 219.734375 C 169.417969 218.835938 170.589844 217.976562 171.785156 217.148438 C 172.980469 216.324219 174.203125 215.535156 175.445312 214.785156 C 176.691406 214.039062 177.960938 213.328125 179.25 212.65625 C 180.539062 211.988281 181.847656 211.359375 183.179688 210.769531 C 184.507812 210.179688 185.855469 209.632812 187.21875 209.128906 C 188.582031 208.625 189.957031 208.164062 191.351562 207.746094 C 192.742188 207.328125 194.148438 206.953125 195.5625 206.621094 C 196.980469 206.292969 198.40625 206.003906 199.839844 205.761719 C 201.273438 205.519531 202.710938 205.324219 204.15625 205.171875 C 205.605469 205.019531 207.054688 204.914062 208.507812 204.851562 C 209.960938 204.792969 211.414062 204.773438 212.867188 204.804688 C 214.320312 204.832031 215.773438 204.910156 217.222656 205.027344 C 218.671875 205.148438 220.113281 205.3125 221.550781 205.523438 C 222.992188 205.734375 224.421875 205.988281 225.84375 206.289062 C 227.269531 206.585938 228.679688 206.929688 230.082031 207.316406 C 231.484375 207.707031 232.871094 208.136719 234.246094 208.609375 C 235.621094 209.085938 236.976562 209.601562 238.320312 210.160156 C 239.660156 210.71875 240.984375 211.320312 242.289062 211.960938 C 243.59375 212.601562 244.875 213.285156 246.136719 214.007812 C 247.398438 214.726562 248.636719 215.488281 249.851562 216.289062 C 251.066406 217.085938 252.253906 217.921875 253.414062 218.796875 C 254.578125 219.667969 255.710938 220.578125 256.8125 221.523438 C 257.917969 222.464844 258.992188 223.441406 260.035156 224.453125 C 261.082031 225.464844 262.089844 226.507812 263.070312 227.582031 C 264.046875 228.65625 264.992188 229.757812 265.898438 230.890625 C 266.808594 232.023438 267.683594 233.183594 268.519531 234.371094 C 269.355469 235.558594 270.152344 236.773438 270.914062 238.011719 C 271.671875 239.246094 272.394531 240.507812 273.074219 241.789062 C 273.757812 243.070312 274.398438 244.375 274.996094 245.695312 C 275.597656 247.019531 276.15625 248.359375 276.671875 249.714844 C 277.1875 251.074219 277.660156 252.445312 278.089844 253.832031 C 278.519531 255.21875 278.90625 256.617188 279.25 258.027344 C 279.589844 259.4375 279.890625 260.859375 280.144531 262.289062 C 280.394531 263.714844 280.605469 265.152344 280.769531 266.59375 C 280.933594 268.039062 281.050781 269.484375 281.121094 270.933594 C 281.195312 272.382812 281.222656 273.832031 281.207031 275.285156 C 281.1875 276.738281 281.125 278.1875 281.015625 279.632812 C 280.90625 281.082031 280.753906 282.523438 280.554688 283.960938 C 280.355469 285.398438 280.109375 286.828125 279.820312 288.253906 C 279.53125 289.675781 279.199219 291.085938 278.820312 292.488281 Z M 278.820312 292.488281 " fill-opacity="0.78" fill-rule="evenodd"/></g><g clip-path="url(#bfda8ee8ea)"><path fill="#01a6e6" d="M 238.789062 292.878906 C 224.382812 293.480469 212.761719 301.761719 210.136719 342.210938 C 192.507812 330.65625 173.832031 321.152344 154.109375 313.695312 C 154.140625 312.46875 154.21875 311.242188 154.347656 310.023438 C 154.476562 308.800781 154.65625 307.589844 154.882812 306.382812 C 155.113281 305.175781 155.390625 303.980469 155.71875 302.796875 C 156.042969 301.613281 156.417969 300.445312 156.839844 299.292969 C 157.261719 298.140625 157.730469 297.007812 158.242188 295.890625 C 158.757812 294.777344 159.316406 293.683594 159.921875 292.617188 C 160.527344 291.546875 161.171875 290.503906 161.863281 289.488281 C 162.550781 288.472656 163.28125 287.484375 164.050781 286.527344 C 164.820312 285.570312 165.628906 284.644531 166.472656 283.753906 C 167.320312 282.863281 168.199219 282.007812 169.113281 281.1875 C 170.03125 280.367188 170.976562 279.585938 171.957031 278.84375 C 172.9375 278.101562 173.945312 277.402344 174.980469 276.742188 C 176.015625 276.082031 177.078125 275.464844 178.167969 274.890625 C 179.253906 274.316406 180.363281 273.789062 181.492188 273.304688 C 182.621094 272.824219 183.769531 272.386719 184.9375 271.996094 C 186.101562 271.605469 187.28125 271.265625 188.476562 270.972656 C 189.671875 270.679688 190.875 270.433594 192.089844 270.238281 C 193.300781 270.042969 194.523438 269.898438 195.75 269.800781 C 196.972656 269.703125 198.203125 269.660156 199.433594 269.664062 C 200.660156 269.667969 201.890625 269.722656 203.113281 269.824219 C 204.339844 269.929688 205.558594 270.082031 206.769531 270.285156 C 207.984375 270.488281 209.1875 270.742188 210.378906 271.042969 C 211.570312 271.34375 212.746094 271.695312 213.910156 272.09375 C 215.074219 272.488281 216.21875 272.933594 217.347656 273.425781 C 218.472656 273.914062 219.578125 274.449219 220.660156 275.03125 C 221.746094 275.613281 222.804688 276.238281 223.835938 276.902344 C 224.867188 277.570312 225.871094 278.277344 226.84375 279.027344 C 227.820312 279.777344 228.761719 280.5625 229.671875 281.390625 C 230.582031 282.214844 231.457031 283.074219 232.296875 283.972656 C 233.136719 284.871094 233.9375 285.796875 234.699219 286.761719 C 235.464844 287.722656 236.1875 288.714844 236.871094 289.734375 C 237.550781 290.757812 238.191406 291.804688 238.789062 292.878906 Z M 238.789062 292.878906 " fill-opacity="0.78" fill-rule="evenodd"/></g><path fill="#2063b2" d="M 304.675781 223.394531 C 302.964844 223.890625 301.382812 224.648438 299.925781 225.671875 C 294.320312 230.035156 298.152344 234.757812 298.648438 238.164062 C 298.886719 239.78125 297.417969 242.378906 292.570312 245.539062 C 298.175781 249.667969 294.40625 252.828125 292.148438 255.867188 C 281.660156 263.414062 296.253906 279.769531 278.953125 292.445312 C 261.488281 299.625 240.257812 286.957031 225.914062 296.683594 C 225.6875 295.375 225.5 294.0625 225.355469 292.742188 C 225.210938 291.421875 225.105469 290.101562 225.042969 288.773438 C 224.976562 287.449219 224.957031 286.121094 224.976562 284.792969 C 224.992188 283.464844 225.054688 282.140625 225.15625 280.816406 C 225.257812 279.492188 225.398438 278.175781 225.582031 276.859375 C 225.765625 275.546875 225.988281 274.238281 226.253906 272.9375 C 226.519531 271.636719 226.824219 270.34375 227.167969 269.0625 C 227.511719 267.78125 227.894531 266.507812 228.320312 265.25 C 228.742188 263.992188 229.207031 262.75 229.707031 261.519531 C 230.207031 260.289062 230.746094 259.078125 231.324219 257.878906 C 231.898438 256.683594 232.511719 255.507812 233.160156 254.347656 C 233.8125 253.191406 234.496094 252.054688 235.214844 250.9375 C 235.9375 249.820312 236.691406 248.730469 237.480469 247.660156 C 238.265625 246.589844 239.085938 245.546875 239.941406 244.527344 C 240.792969 243.507812 241.675781 242.519531 242.589844 241.554688 C 243.507812 240.589844 244.449219 239.65625 245.421875 238.75 C 246.394531 237.847656 247.394531 236.972656 248.421875 236.128906 C 249.449219 235.285156 250.5 234.472656 251.578125 233.695312 C 252.65625 232.917969 253.753906 232.175781 254.878906 231.464844 C 256.003906 230.753906 257.148438 230.078125 258.3125 229.441406 C 259.476562 228.800781 260.660156 228.199219 261.863281 227.632812 C 263.066406 227.066406 264.285156 226.539062 265.523438 226.046875 C 266.757812 225.558594 268.007812 225.105469 269.273438 224.691406 C 270.535156 224.28125 271.8125 223.90625 273.097656 223.574219 C 274.386719 223.238281 275.679688 222.945312 276.988281 222.691406 C 278.292969 222.4375 279.605469 222.222656 280.921875 222.050781 C 282.242188 221.878906 283.5625 221.746094 284.890625 221.65625 C 286.214844 221.566406 287.542969 221.515625 288.875 221.507812 C 290.203125 221.5 291.53125 221.53125 292.859375 221.605469 C 294.1875 221.679688 295.511719 221.796875 296.832031 221.953125 C 298.152344 222.109375 299.46875 222.304688 300.777344 222.542969 C 302.085938 222.777344 303.382812 223.058594 304.675781 223.375 Z M 304.675781 223.394531 " fill-opacity="0.78" fill-rule="evenodd"/><path fill="#12bcbc" d="M 101.882812 224.203125 C 102.699219 224.203125 103.515625 224.164062 104.328125 224.085938 C 105.140625 224.007812 105.949219 223.886719 106.75 223.726562 C 107.550781 223.570312 108.34375 223.371094 109.125 223.136719 C 109.90625 222.898438 110.671875 222.625 111.429688 222.3125 C 112.183594 222 112.921875 221.652344 113.640625 221.269531 C 114.363281 220.886719 115.0625 220.464844 115.742188 220.015625 C 116.421875 219.5625 117.074219 219.074219 117.707031 218.558594 C 118.339844 218.042969 118.945312 217.496094 119.519531 216.917969 C 120.097656 216.34375 120.648438 215.738281 121.164062 215.109375 C 121.683594 214.480469 122.171875 213.824219 122.625 213.148438 C 123.078125 212.46875 123.496094 211.769531 123.882812 211.050781 C 124.269531 210.332031 124.617188 209.597656 124.929688 208.84375 C 125.242188 208.089844 125.519531 207.324219 125.753906 206.542969 C 125.992188 205.761719 126.191406 204.972656 126.351562 204.171875 C 126.507812 203.371094 126.628906 202.566406 126.710938 201.757812 C 126.789062 200.945312 126.828125 200.132812 126.832031 199.316406 C 126.832031 198.5 126.789062 197.6875 126.710938 196.875 C 126.628906 196.0625 126.511719 195.257812 126.351562 194.457031 C 126.191406 193.660156 125.992188 192.867188 125.757812 192.089844 C 125.519531 191.308594 125.246094 190.542969 124.933594 189.789062 C 124.621094 189.035156 124.269531 188.296875 123.886719 187.578125 C 123.5 186.859375 123.082031 186.160156 122.628906 185.484375 C 122.175781 184.804688 121.6875 184.152344 121.171875 183.519531 C 120.652344 182.890625 120.105469 182.285156 119.527344 181.710938 C 118.949219 181.132812 118.34375 180.585938 117.714844 180.070312 C 117.082031 179.550781 116.425781 179.066406 115.746094 178.613281 C 115.066406 178.160156 114.367188 177.742188 113.648438 177.359375 C 112.925781 176.972656 112.191406 176.625 111.433594 176.3125 C 110.679688 176 109.914062 175.726562 109.128906 175.492188 C 108.347656 175.253906 107.558594 175.054688 106.757812 174.898438 C 105.957031 174.738281 105.148438 174.617188 104.335938 174.539062 C 103.523438 174.460938 102.707031 174.417969 101.890625 174.417969 C 101.074219 174.417969 100.257812 174.460938 99.445312 174.539062 C 98.632812 174.621094 97.824219 174.738281 97.023438 174.898438 C 96.222656 175.058594 95.433594 175.257812 94.652344 175.492188 C 93.871094 175.730469 93.101562 176.003906 92.347656 176.316406 C 91.59375 176.628906 90.855469 176.976562 90.132812 177.363281 C 89.414062 177.746094 88.714844 178.164062 88.035156 178.617188 C 87.355469 179.070312 86.699219 179.554688 86.070312 180.074219 C 85.4375 180.589844 84.835938 181.136719 84.257812 181.714844 C 83.679688 182.292969 83.132812 182.894531 82.613281 183.527344 C 82.09375 184.15625 81.609375 184.8125 81.15625 185.488281 C 80.703125 186.167969 80.285156 186.867188 79.898438 187.585938 C 79.515625 188.304688 79.164062 189.039062 78.851562 189.792969 C 78.539062 190.546875 78.265625 191.316406 78.027344 192.09375 C 77.792969 192.875 77.59375 193.664062 77.433594 194.464844 C 77.277344 195.265625 77.15625 196.070312 77.078125 196.882812 C 76.996094 197.695312 76.957031 198.507812 76.957031 199.324219 C 76.960938 200.136719 77 200.949219 77.082031 201.761719 C 77.164062 202.570312 77.285156 203.375 77.445312 204.171875 C 77.605469 204.972656 77.804688 205.761719 78.042969 206.539062 C 78.28125 207.320312 78.558594 208.085938 78.871094 208.835938 C 79.183594 209.589844 79.53125 210.324219 79.917969 211.042969 C 80.300781 211.757812 80.722656 212.457031 81.175781 213.132812 C 81.628906 213.8125 82.113281 214.464844 82.632812 215.09375 C 83.148438 215.722656 83.699219 216.324219 84.273438 216.902344 C 84.851562 217.476562 85.453125 218.023438 86.085938 218.539062 C 86.714844 219.058594 87.371094 219.542969 88.046875 219.996094 C 88.726562 220.449219 89.425781 220.867188 90.144531 221.25 C 90.863281 221.636719 91.601562 221.984375 92.351562 222.296875 C 93.105469 222.609375 93.875 222.882812 94.652344 223.121094 C 95.433594 223.359375 96.222656 223.558594 97.023438 223.71875 C 97.824219 223.878906 98.628906 224 99.441406 224.078125 C 100.253906 224.160156 101.066406 224.203125 101.882812 224.203125 Z M 101.882812 224.203125 " fill-opacity="0.78" fill-rule="evenodd"/><path fill="#00b9f1" d="M 154.109375 258.855469 C 154.855469 258.855469 155.597656 258.820312 156.339844 258.75 C 157.082031 258.679688 157.820312 258.574219 158.550781 258.429688 C 159.28125 258.285156 160.003906 258.109375 160.71875 257.894531 C 161.433594 257.679688 162.132812 257.429688 162.824219 257.148438 C 163.511719 256.863281 164.1875 256.550781 164.84375 256.199219 C 165.503906 255.851562 166.140625 255.46875 166.761719 255.058594 C 167.382812 254.648438 167.984375 254.207031 168.558594 253.734375 C 169.136719 253.265625 169.691406 252.765625 170.21875 252.242188 C 170.746094 251.71875 171.246094 251.167969 171.722656 250.59375 C 172.195312 250.019531 172.640625 249.421875 173.054688 248.804688 C 173.472656 248.1875 173.855469 247.550781 174.207031 246.894531 C 174.5625 246.242188 174.882812 245.570312 175.167969 244.882812 C 175.453125 244.195312 175.707031 243.496094 175.925781 242.785156 C 176.144531 242.074219 176.324219 241.351562 176.472656 240.625 C 176.617188 239.894531 176.730469 239.160156 176.804688 238.417969 C 176.878906 237.679688 176.917969 236.9375 176.917969 236.191406 C 176.917969 235.449219 176.882812 234.707031 176.8125 233.964844 C 176.742188 233.226562 176.632812 232.488281 176.488281 231.761719 C 176.34375 231.03125 176.164062 230.308594 175.949219 229.597656 C 175.734375 228.882812 175.484375 228.183594 175.203125 227.496094 C 174.917969 226.808594 174.601562 226.136719 174.25 225.480469 C 173.898438 224.824219 173.519531 224.183594 173.105469 223.566406 C 172.691406 222.945312 172.25 222.347656 171.777344 221.773438 C 171.304688 221.195312 170.804688 220.644531 170.28125 220.117188 C 169.753906 219.589844 169.203125 219.089844 168.625 218.617188 C 168.050781 218.144531 167.453125 217.703125 166.835938 217.289062 C 166.214844 216.875 165.578125 216.492188 164.921875 216.140625 C 164.265625 215.789062 163.589844 215.46875 162.902344 215.183594 C 162.214844 214.898438 161.515625 214.648438 160.800781 214.429688 C 160.089844 214.214844 159.367188 214.03125 158.636719 213.886719 C 157.90625 213.742188 157.167969 213.628906 156.425781 213.558594 C 155.683594 213.484375 154.941406 213.445312 154.195312 213.445312 C 153.449219 213.445312 152.707031 213.480469 151.964844 213.554688 C 151.222656 213.625 150.488281 213.734375 149.757812 213.878906 C 149.023438 214.023438 148.300781 214.203125 147.589844 214.417969 C 146.875 214.632812 146.175781 214.882812 145.484375 215.167969 C 144.796875 215.453125 144.125 215.769531 143.464844 216.121094 C 142.808594 216.46875 142.167969 216.851562 141.550781 217.265625 C 140.929688 217.675781 140.332031 218.121094 139.753906 218.589844 C 139.179688 219.0625 138.628906 219.5625 138.101562 220.085938 C 137.574219 220.613281 137.074219 221.164062 136.597656 221.738281 C 136.125 222.3125 135.683594 222.910156 135.269531 223.527344 C 134.855469 224.148438 134.472656 224.785156 134.121094 225.441406 C 133.769531 226.097656 133.449219 226.769531 133.164062 227.457031 C 132.878906 228.144531 132.628906 228.84375 132.410156 229.554688 C 132.195312 230.265625 132.015625 230.988281 131.867188 231.71875 C 131.722656 232.449219 131.613281 233.183594 131.539062 233.921875 C 131.46875 234.664062 131.429688 235.40625 131.429688 236.148438 C 131.433594 236.890625 131.46875 237.632812 131.542969 238.371094 C 131.617188 239.109375 131.726562 239.839844 131.875 240.566406 C 132.019531 241.296875 132.199219 242.015625 132.417969 242.722656 C 132.632812 243.433594 132.882812 244.132812 133.167969 244.816406 C 133.453125 245.5 133.769531 246.171875 134.121094 246.824219 C 134.46875 247.480469 134.851562 248.117188 135.261719 248.734375 C 135.675781 249.351562 136.117188 249.945312 136.589844 250.519531 C 137.058594 251.09375 137.558594 251.644531 138.082031 252.167969 C 138.605469 252.695312 139.15625 253.191406 139.730469 253.664062 C 140.304688 254.136719 140.898438 254.578125 141.515625 254.992188 C 142.132812 255.40625 142.769531 255.789062 143.421875 256.140625 C 144.078125 256.492188 144.746094 256.808594 145.433594 257.09375 C 146.117188 257.382812 146.816406 257.632812 147.527344 257.851562 C 148.238281 258.070312 148.957031 258.25 149.683594 258.398438 C 150.414062 258.546875 151.148438 258.660156 151.886719 258.734375 C 152.625 258.808594 153.367188 258.851562 154.109375 258.855469 Z M 154.109375 258.855469 " fill-opacity="0.78" fill-rule="evenodd"/><path fill="#8dc63f" d="M 98.296875 163.628906 C 98.871094 163.628906 99.441406 163.601562 100.011719 163.542969 C 100.582031 163.488281 101.144531 163.402344 101.707031 163.292969 C 102.269531 163.179688 102.824219 163.042969 103.371094 162.875 C 103.917969 162.710938 104.457031 162.519531 104.984375 162.300781 C 105.515625 162.082031 106.03125 161.835938 106.535156 161.566406 C 107.039062 161.296875 107.53125 161.003906 108.007812 160.6875 C 108.484375 160.371094 108.941406 160.03125 109.382812 159.667969 C 109.828125 159.304688 110.25 158.921875 110.65625 158.519531 C 111.058594 158.113281 111.445312 157.691406 111.804688 157.25 C 112.167969 156.808594 112.511719 156.347656 112.828125 155.875 C 113.144531 155.398438 113.441406 154.910156 113.710938 154.40625 C 113.980469 153.902344 114.222656 153.386719 114.441406 152.859375 C 114.660156 152.328125 114.855469 151.792969 115.019531 151.246094 C 115.1875 150.699219 115.324219 150.144531 115.4375 149.585938 C 115.546875 149.023438 115.632812 148.460938 115.6875 147.890625 C 115.742188 147.324219 115.773438 146.753906 115.769531 146.179688 C 115.769531 145.609375 115.742188 145.039062 115.6875 144.472656 C 115.628906 143.902344 115.546875 143.339844 115.433594 142.777344 C 115.324219 142.21875 115.183594 141.664062 115.019531 141.117188 C 114.851562 140.570312 114.660156 140.035156 114.441406 139.503906 C 114.21875 138.976562 113.976562 138.460938 113.707031 137.957031 C 113.4375 137.453125 113.140625 136.964844 112.824219 136.488281 C 112.503906 136.015625 112.164062 135.558594 111.800781 135.113281 C 111.4375 134.671875 111.054688 134.25 110.648438 133.847656 C 110.246094 133.441406 109.820312 133.058594 109.378906 132.699219 C 108.9375 132.335938 108.476562 131.996094 108 131.679688 C 107.523438 131.359375 107.035156 131.066406 106.53125 130.796875 C 106.023438 130.53125 105.507812 130.285156 104.980469 130.066406 C 104.449219 129.847656 103.910156 129.65625 103.363281 129.492188 C 102.816406 129.324219 102.261719 129.1875 101.699219 129.074219 C 101.140625 128.964844 100.574219 128.882812 100.003906 128.824219 C 99.433594 128.769531 98.863281 128.742188 98.289062 128.742188 C 97.71875 128.742188 97.148438 128.769531 96.578125 128.828125 C 96.007812 128.882812 95.441406 128.964844 94.882812 129.078125 C 94.320312 129.191406 93.765625 129.328125 93.21875 129.496094 C 92.671875 129.660156 92.132812 129.855469 91.605469 130.074219 C 91.074219 130.292969 90.558594 130.535156 90.054688 130.804688 C 89.550781 131.074219 89.058594 131.367188 88.582031 131.6875 C 88.105469 132.003906 87.648438 132.34375 87.207031 132.707031 C 86.765625 133.070312 86.339844 133.453125 85.9375 133.855469 C 85.53125 134.261719 85.148438 134.683594 84.785156 135.125 C 84.421875 135.566406 84.082031 136.027344 83.765625 136.5 C 83.445312 136.976562 83.152344 137.464844 82.882812 137.972656 C 82.613281 138.476562 82.371094 138.992188 82.152344 139.519531 C 81.933594 140.046875 81.738281 140.585938 81.574219 141.132812 C 81.40625 141.679688 81.269531 142.230469 81.15625 142.792969 C 81.046875 143.351562 80.964844 143.917969 80.90625 144.484375 C 80.851562 145.054688 80.824219 145.625 80.824219 146.195312 C 80.824219 146.765625 80.855469 147.335938 80.910156 147.902344 C 80.96875 148.472656 81.054688 149.035156 81.164062 149.59375 C 81.277344 150.15625 81.417969 150.707031 81.585938 151.253906 C 81.75 151.800781 81.945312 152.335938 82.164062 152.863281 C 82.382812 153.390625 82.628906 153.90625 82.898438 154.410156 C 83.167969 154.914062 83.460938 155.402344 83.78125 155.875 C 84.097656 156.351562 84.4375 156.808594 84.800781 157.25 C 85.164062 157.691406 85.546875 158.113281 85.953125 158.515625 C 86.355469 158.921875 86.78125 159.304688 87.222656 159.664062 C 87.664062 160.027344 88.125 160.367188 88.597656 160.683594 C 89.074219 161 89.5625 161.292969 90.066406 161.5625 C 90.574219 161.832031 91.089844 162.078125 91.617188 162.296875 C 92.144531 162.515625 92.683594 162.707031 93.230469 162.871094 C 93.777344 163.039062 94.332031 163.175781 94.890625 163.289062 C 95.453125 163.402344 96.015625 163.484375 96.585938 163.542969 C 97.15625 163.597656 97.726562 163.628906 98.296875 163.628906 Z M 98.296875 163.628906 " fill-opacity="0.78" fill-rule="evenodd"/><path fill="#ffd900" d="M 89.582031 102.847656 C 89.582031 103.839844 89.484375 104.820312 89.292969 105.792969 C 89.097656 106.765625 88.8125 107.710938 88.429688 108.625 C 88.050781 109.542969 87.585938 110.414062 87.03125 111.238281 C 86.480469 112.0625 85.855469 112.824219 85.152344 113.527344 C 84.449219 114.226562 83.683594 114.855469 82.859375 115.40625 C 82.03125 115.957031 81.160156 116.421875 80.242188 116.800781 C 79.324219 117.179688 78.378906 117.464844 77.40625 117.660156 C 76.429688 117.855469 75.445312 117.949219 74.453125 117.949219 C 73.460938 117.949219 72.476562 117.855469 71.5 117.660156 C 70.527344 117.464844 69.582031 117.179688 68.664062 116.800781 C 67.746094 116.421875 66.871094 115.957031 66.046875 115.40625 C 65.222656 114.855469 64.457031 114.226562 63.753906 113.527344 C 63.050781 112.824219 62.425781 112.0625 61.871094 111.238281 C 61.320312 110.414062 60.855469 109.542969 60.472656 108.625 C 60.09375 107.710938 59.808594 106.765625 59.613281 105.792969 C 59.417969 104.820312 59.324219 103.839844 59.324219 102.847656 C 59.324219 101.855469 59.417969 100.871094 59.613281 99.898438 C 59.808594 98.925781 60.09375 97.984375 60.472656 97.066406 C 60.855469 96.152344 61.320312 95.28125 61.871094 94.457031 C 62.425781 93.632812 63.050781 92.867188 63.753906 92.167969 C 64.457031 91.464844 65.222656 90.839844 66.046875 90.289062 C 66.871094 89.738281 67.746094 89.273438 68.664062 88.894531 C 69.582031 88.511719 70.527344 88.226562 71.5 88.03125 C 72.476562 87.839844 73.460938 87.742188 74.453125 87.742188 C 75.445312 87.742188 76.429688 87.839844 77.40625 88.03125 C 78.378906 88.226562 79.324219 88.511719 80.242188 88.894531 C 81.160156 89.273438 82.03125 89.738281 82.859375 90.289062 C 83.683594 90.839844 84.449219 91.464844 85.152344 92.167969 C 85.855469 92.867188 86.480469 93.632812 87.03125 94.457031 C 87.585938 95.28125 88.050781 96.152344 88.429688 97.066406 C 88.8125 97.984375 89.097656 98.925781 89.292969 99.898438 C 89.484375 100.871094 89.582031 101.855469 89.582031 102.847656 Z M 89.582031 102.847656 " fill-opacity="0.78" fill-rule="nonzero"/><path fill="#009444" d="M 106.417969 75.171875 C 107.347656 75.171875 108.265625 75.082031 109.175781 74.902344 C 110.085938 74.722656 110.96875 74.457031 111.828125 74.101562 C 112.683594 73.75 113.5 73.316406 114.269531 72.800781 C 115.042969 72.289062 115.753906 71.703125 116.410156 71.050781 C 117.066406 70.394531 117.65625 69.683594 118.171875 68.914062 C 118.6875 68.144531 119.121094 67.332031 119.476562 66.476562 C 119.832031 65.621094 120.101562 64.738281 120.28125 63.828125 C 120.464844 62.921875 120.554688 62.003906 120.554688 61.078125 C 120.554688 60.152344 120.464844 59.234375 120.285156 58.328125 C 120.105469 57.417969 119.835938 56.535156 119.484375 55.679688 C 119.128906 54.824219 118.691406 54.011719 118.179688 53.242188 C 117.664062 52.472656 117.078125 51.757812 116.421875 51.105469 C 115.765625 50.449219 115.054688 49.863281 114.28125 49.351562 C 113.511719 48.835938 112.695312 48.398438 111.839844 48.046875 C 110.984375 47.691406 110.097656 47.421875 109.191406 47.242188 C 108.28125 47.0625 107.359375 46.972656 106.433594 46.96875 C 105.507812 46.96875 104.585938 47.058594 103.675781 47.242188 C 102.765625 47.421875 101.882812 47.6875 101.027344 48.042969 C 100.167969 48.398438 99.355469 48.832031 98.585938 49.34375 C 97.8125 49.859375 97.097656 50.445312 96.441406 51.097656 C 95.785156 51.753906 95.199219 52.464844 94.6875 53.234375 C 94.171875 54.007812 93.734375 54.820312 93.378906 55.675781 C 93.023438 56.53125 92.757812 57.410156 92.574219 58.320312 C 92.394531 59.226562 92.304688 60.144531 92.304688 61.070312 C 92.304688 61.996094 92.398438 62.914062 92.578125 63.820312 C 92.761719 64.726562 93.027344 65.609375 93.382812 66.460938 C 93.738281 67.316406 94.175781 68.128906 94.6875 68.898438 C 95.203125 69.667969 95.789062 70.378906 96.445312 71.03125 C 97.097656 71.6875 97.8125 72.269531 98.582031 72.785156 C 99.351562 73.300781 100.164062 73.734375 101.019531 74.089844 C 101.875 74.445312 102.757812 74.714844 103.667969 74.894531 C 104.574219 75.078125 105.492188 75.171875 106.417969 75.171875 Z M 106.417969 75.171875 " fill-opacity="0.78" fill-rule="evenodd"/><path fill="#56ba48" d="M 111.214844 110.316406 C 111.828125 110.316406 112.433594 110.257812 113.035156 110.140625 C 113.636719 110.019531 114.21875 109.84375 114.785156 109.609375 C 115.351562 109.375 115.886719 109.085938 116.398438 108.746094 C 116.90625 108.40625 117.378906 108.023438 117.8125 107.589844 C 118.246094 107.15625 118.632812 106.6875 118.972656 106.179688 C 119.3125 105.667969 119.601562 105.132812 119.835938 104.566406 C 120.070312 104.003906 120.246094 103.421875 120.367188 102.820312 C 120.484375 102.21875 120.542969 101.613281 120.542969 101.003906 C 120.542969 100.390625 120.484375 99.785156 120.367188 99.1875 C 120.246094 98.585938 120.070312 98.003906 119.835938 97.4375 C 119.601562 96.875 119.3125 96.335938 118.972656 95.828125 C 118.632812 95.320312 118.246094 94.847656 117.8125 94.417969 C 117.378906 93.984375 116.90625 93.597656 116.398438 93.257812 C 115.886719 92.917969 115.351562 92.632812 114.785156 92.398438 C 114.21875 92.164062 113.636719 91.988281 113.035156 91.867188 C 112.433594 91.75 111.828125 91.6875 111.214844 91.6875 C 110.601562 91.6875 109.996094 91.75 109.394531 91.867188 C 108.792969 91.988281 108.210938 92.164062 107.644531 92.398438 C 107.078125 92.632812 106.539062 92.917969 106.03125 93.257812 C 105.519531 93.597656 105.050781 93.984375 104.617188 94.417969 C 104.183594 94.847656 103.796875 95.320312 103.457031 95.828125 C 103.117188 96.335938 102.828125 96.875 102.59375 97.4375 C 102.359375 98.003906 102.183594 98.585938 102.0625 99.1875 C 101.941406 99.785156 101.882812 100.390625 101.882812 101.003906 C 101.886719 101.613281 101.945312 102.21875 102.066406 102.820312 C 102.1875 103.417969 102.363281 104 102.597656 104.5625 C 102.835938 105.128906 103.121094 105.664062 103.460938 106.171875 C 103.804688 106.679688 104.191406 107.152344 104.621094 107.582031 C 105.054688 108.015625 105.527344 108.402344 106.035156 108.742188 C 106.542969 109.082031 107.082031 109.367188 107.648438 109.601562 C 108.210938 109.835938 108.796875 110.015625 109.394531 110.136719 C 109.996094 110.253906 110.601562 110.316406 111.214844 110.316406 Z M 111.214844 110.316406 " fill-opacity="0.78" fill-rule="evenodd"/><g clip-path="url(#9d866aadf3)"><path fill="#fbad17" d="M 130.675781 51.089844 C 131.289062 51.089844 131.894531 51.027344 132.496094 50.910156 C 133.097656 50.789062 133.679688 50.613281 134.246094 50.378906 C 134.8125 50.144531 135.347656 49.859375 135.859375 49.519531 C 136.367188 49.179688 136.839844 48.792969 137.273438 48.359375 C 137.707031 47.929688 138.09375 47.457031 138.433594 46.949219 C 138.773438 46.441406 139.0625 45.902344 139.296875 45.339844 C 139.53125 44.773438 139.707031 44.191406 139.828125 43.589844 C 139.945312 42.992188 140.003906 42.386719 140.003906 41.773438 C 140.003906 41.164062 139.945312 40.558594 139.828125 39.957031 C 139.707031 39.355469 139.53125 38.773438 139.296875 38.210938 C 139.0625 37.644531 138.773438 37.109375 138.433594 36.597656 C 138.09375 36.089844 137.707031 35.621094 137.273438 35.1875 C 136.839844 34.753906 136.367188 34.371094 135.859375 34.03125 C 135.347656 33.691406 134.8125 33.402344 134.246094 33.167969 C 133.679688 32.933594 133.097656 32.757812 132.496094 32.640625 C 131.894531 32.519531 131.289062 32.460938 130.675781 32.460938 C 130.0625 32.460938 129.457031 32.519531 128.855469 32.640625 C 128.253906 32.757812 127.671875 32.933594 127.105469 33.167969 C 126.539062 33.402344 126 33.691406 125.492188 34.03125 C 124.980469 34.371094 124.511719 34.753906 124.078125 35.1875 C 123.644531 35.621094 123.257812 36.089844 122.917969 36.597656 C 122.574219 37.109375 122.289062 37.644531 122.054688 38.210938 C 121.820312 38.773438 121.644531 39.355469 121.523438 39.957031 C 121.402344 40.558594 121.34375 41.164062 121.34375 41.773438 C 121.34375 42.386719 121.40625 42.992188 121.527344 43.589844 C 121.648438 44.1875 121.824219 44.769531 122.058594 45.335938 C 122.296875 45.898438 122.582031 46.4375 122.921875 46.945312 C 123.261719 47.453125 123.648438 47.921875 124.082031 48.355469 C 124.515625 48.785156 124.988281 49.171875 125.496094 49.511719 C 126.003906 49.851562 126.542969 50.140625 127.105469 50.375 C 127.671875 50.609375 128.253906 50.785156 128.855469 50.90625 C 129.457031 51.027344 130.0625 51.085938 130.675781 51.089844 Z M 130.675781 51.089844 " fill-opacity="0.78" fill-rule="evenodd"/></g><path fill="#f15c22" d="M 73.363281 71.851562 C 73.824219 71.851562 74.285156 71.804688 74.738281 71.710938 C 75.191406 71.617188 75.632812 71.484375 76.058594 71.304688 C 76.488281 71.125 76.894531 70.90625 77.277344 70.648438 C 77.660156 70.390625 78.015625 70.097656 78.34375 69.769531 C 78.667969 69.441406 78.960938 69.082031 79.214844 68.699219 C 79.472656 68.3125 79.6875 67.90625 79.863281 67.476562 C 80.039062 67.050781 80.171875 66.609375 80.261719 66.15625 C 80.351562 65.699219 80.394531 65.242188 80.390625 64.78125 C 80.390625 64.316406 80.34375 63.859375 80.253906 63.40625 C 80.160156 62.953125 80.027344 62.511719 79.847656 62.085938 C 79.667969 61.660156 79.449219 61.253906 79.191406 60.871094 C 78.933594 60.484375 78.640625 60.132812 78.3125 59.804688 C 77.984375 59.480469 77.625 59.1875 77.242188 58.929688 C 76.855469 58.675781 76.449219 58.457031 76.019531 58.28125 C 75.589844 58.105469 75.148438 57.972656 74.695312 57.882812 C 74.242188 57.792969 73.78125 57.75 73.320312 57.75 C 72.855469 57.75 72.398438 57.796875 71.941406 57.886719 C 71.488281 57.980469 71.046875 58.113281 70.621094 58.289062 C 70.191406 58.46875 69.785156 58.6875 69.398438 58.941406 C 69.015625 59.199219 68.660156 59.492188 68.332031 59.820312 C 68.003906 60.148438 67.710938 60.503906 67.453125 60.886719 C 67.199219 61.273438 66.980469 61.679688 66.804688 62.105469 C 66.625 62.535156 66.492188 62.972656 66.402344 63.425781 C 66.3125 63.882812 66.265625 64.339844 66.265625 64.800781 C 66.269531 65.265625 66.316406 65.726562 66.40625 66.179688 C 66.5 66.632812 66.632812 67.074219 66.8125 67.503906 C 66.992188 67.933594 67.210938 68.339844 67.46875 68.722656 C 67.730469 69.109375 68.023438 69.464844 68.351562 69.792969 C 68.683594 70.121094 69.039062 70.410156 69.425781 70.667969 C 69.816406 70.925781 70.222656 71.140625 70.652344 71.320312 C 71.082031 71.496094 71.523438 71.628906 71.980469 71.71875 C 72.4375 71.808594 72.898438 71.851562 73.363281 71.851562 Z M 73.363281 71.851562 " fill-opacity="0.78" fill-rule="evenodd"/><path fill="#fbad17" d="M 241.25 143.78125 C 241.25 145.710938 241.15625 147.636719 240.964844 149.554688 C 240.777344 151.476562 240.492188 153.382812 240.117188 155.273438 C 239.738281 157.167969 239.269531 159.035156 238.710938 160.882812 C 238.148438 162.730469 237.496094 164.542969 236.757812 166.328125 C 236.019531 168.109375 235.191406 169.851562 234.28125 171.554688 C 233.371094 173.253906 232.378906 174.910156 231.304688 176.511719 C 230.230469 178.117188 229.078125 179.664062 227.855469 181.15625 C 226.628906 182.648438 225.332031 184.078125 223.964844 185.441406 C 222.597656 186.804688 221.167969 188.101562 219.671875 189.324219 C 218.179688 190.546875 216.628906 191.695312 215.019531 192.769531 C 213.414062 193.839844 211.757812 194.832031 210.054688 195.742188 C 208.347656 196.648438 206.601562 197.472656 204.816406 198.210938 C 203.03125 198.949219 201.214844 199.601562 199.363281 200.160156 C 197.515625 200.71875 195.640625 201.1875 193.746094 201.566406 C 191.847656 201.941406 189.941406 202.222656 188.015625 202.414062 C 186.09375 202.601562 184.164062 202.695312 182.230469 202.695312 C 180.296875 202.695312 178.371094 202.601562 176.445312 202.414062 C 174.523438 202.222656 172.613281 201.941406 170.71875 201.566406 C 168.820312 201.1875 166.949219 200.71875 165.097656 200.160156 C 163.25 199.601562 161.429688 198.949219 159.644531 198.210938 C 157.859375 197.472656 156.113281 196.648438 154.410156 195.742188 C 152.707031 194.832031 151.050781 193.839844 149.441406 192.769531 C 147.835938 191.695312 146.285156 190.546875 144.789062 189.324219 C 143.296875 188.101562 141.867188 186.804688 140.5 185.441406 C 139.132812 184.078125 137.835938 182.648438 136.609375 181.15625 C 135.382812 179.664062 134.234375 178.117188 133.160156 176.511719 C 132.085938 174.910156 131.09375 173.253906 130.179688 171.554688 C 129.269531 169.851562 128.445312 168.109375 127.703125 166.328125 C 126.964844 164.542969 126.316406 162.730469 125.753906 160.882812 C 125.191406 159.035156 124.722656 157.167969 124.347656 155.273438 C 123.96875 153.382812 123.6875 151.476562 123.496094 149.554688 C 123.308594 147.636719 123.210938 145.710938 123.210938 143.78125 C 123.210938 141.851562 123.308594 139.925781 123.496094 138.007812 C 123.6875 136.085938 123.96875 134.179688 124.347656 132.285156 C 124.722656 130.394531 125.191406 128.523438 125.753906 126.679688 C 126.316406 124.832031 126.964844 123.015625 127.703125 121.234375 C 128.445312 119.453125 129.269531 117.710938 130.179688 116.007812 C 131.09375 114.304688 132.085938 112.652344 133.160156 111.046875 C 134.234375 109.445312 135.382812 107.894531 136.609375 106.40625 C 137.835938 104.914062 139.132812 103.484375 140.5 102.121094 C 141.867188 100.757812 143.296875 99.460938 144.789062 98.238281 C 146.285156 97.015625 147.835938 95.867188 149.441406 94.792969 C 151.050781 93.722656 152.707031 92.730469 154.410156 91.820312 C 156.113281 90.910156 157.859375 90.085938 159.644531 89.347656 C 161.429688 88.609375 163.25 87.960938 165.097656 87.402344 C 166.949219 86.839844 168.820312 86.371094 170.71875 85.996094 C 172.613281 85.621094 174.523438 85.335938 176.445312 85.148438 C 178.371094 84.960938 180.296875 84.863281 182.230469 84.863281 C 184.164062 84.863281 186.09375 84.960938 188.015625 85.148438 C 189.941406 85.335938 191.847656 85.621094 193.746094 85.996094 C 195.640625 86.371094 197.515625 86.839844 199.363281 87.402344 C 201.214844 87.960938 203.03125 88.609375 204.816406 89.347656 C 206.601562 90.085938 208.347656 90.910156 210.050781 91.820312 C 211.757812 92.730469 213.414062 93.722656 215.019531 94.792969 C 216.628906 95.867188 218.179688 97.015625 219.671875 98.238281 C 221.167969 99.460938 222.597656 100.757812 223.964844 102.121094 C 225.332031 103.484375 226.628906 104.914062 227.855469 106.40625 C 229.078125 107.894531 230.230469 109.445312 231.304688 111.046875 C 232.378906 112.652344 233.371094 114.304688 234.28125 116.007812 C 235.191406 117.710938 236.019531 119.453125 236.757812 121.234375 C 237.496094 123.015625 238.148438 124.832031 238.710938 126.679688 C 239.269531 128.523438 239.738281 130.394531 240.117188 132.285156 C 240.492188 134.179688 240.777344 136.085938 240.964844 138.007812 C 241.15625 139.925781 241.25 141.851562 241.25 143.78125 Z M 241.25 143.78125 " fill-opacity="0.78" fill-rule="nonzero"/><path fill="#ec008b" d="M 214.835938 54.601562 C 243.117188 60.425781 266.8125 74.570312 280.789062 94.910156 C 280.667969 95.773438 280.519531 96.628906 280.347656 97.484375 C 280.175781 98.335938 279.976562 99.179688 279.75 100.019531 C 279.523438 100.859375 279.273438 101.691406 278.996094 102.519531 C 278.71875 103.34375 278.414062 104.15625 278.085938 104.964844 C 277.757812 105.769531 277.40625 106.5625 277.03125 107.347656 C 276.652344 108.132812 276.25 108.902344 275.824219 109.660156 C 275.402344 110.421875 274.953125 111.167969 274.480469 111.898438 C 274.007812 112.628906 273.515625 113.34375 273 114.046875 C 272.484375 114.746094 271.949219 115.429688 271.390625 116.097656 C 270.832031 116.765625 270.253906 117.417969 269.652344 118.046875 C 269.054688 118.679688 268.4375 119.292969 267.800781 119.886719 C 267.164062 120.480469 266.507812 121.054688 265.835938 121.605469 C 265.164062 122.160156 264.476562 122.691406 263.769531 123.203125 C 263.066406 123.710938 262.34375 124.199219 261.609375 124.667969 C 260.875 125.132812 260.125 125.574219 259.363281 125.996094 C 258.597656 126.414062 257.824219 126.8125 257.035156 127.183594 C 256.25 127.554688 255.449219 127.902344 254.640625 128.222656 C 253.832031 128.546875 253.011719 128.84375 252.1875 129.113281 C 251.359375 129.386719 250.523438 129.632812 249.679688 129.851562 C 248.835938 130.074219 247.988281 130.265625 247.132812 130.433594 C 246.277344 130.601562 245.417969 130.742188 244.554688 130.855469 C 243.691406 130.972656 242.828125 131.058594 241.957031 131.121094 C 241.089844 131.179688 240.21875 131.214844 239.347656 131.222656 C 238.476562 131.226562 237.605469 131.207031 236.734375 131.160156 C 235.863281 131.113281 234.996094 131.042969 234.132812 130.941406 C 233.265625 130.839844 232.40625 130.714844 231.546875 130.558594 C 230.691406 130.40625 229.839844 130.226562 228.992188 130.019531 C 228.144531 129.8125 227.308594 129.582031 226.476562 129.320312 C 225.644531 129.0625 224.820312 128.78125 224.007812 128.46875 C 223.191406 128.160156 222.386719 127.828125 221.59375 127.46875 C 220.800781 127.109375 220.019531 126.726562 219.25 126.320312 C 218.480469 125.910156 217.722656 125.480469 216.980469 125.027344 C 216.238281 124.574219 215.507812 124.09375 214.796875 123.597656 C 214.082031 123.097656 213.386719 122.578125 212.703125 122.035156 C 212.023438 121.492188 211.359375 120.929688 210.714844 120.347656 C 210.066406 119.761719 209.441406 119.160156 208.832031 118.539062 C 208.222656 117.914062 207.632812 117.277344 207.0625 116.617188 C 206.496094 115.957031 205.945312 115.28125 205.421875 114.589844 C 204.894531 113.898438 204.386719 113.191406 203.90625 112.464844 C 203.421875 111.742188 202.960938 111.003906 202.523438 110.253906 C 202.085938 109.5 201.671875 108.734375 201.285156 107.957031 C 200.894531 107.179688 200.527344 106.390625 200.1875 105.589844 C 199.847656 104.789062 199.53125 103.980469 199.238281 103.160156 C 198.949219 102.339844 198.683594 101.511719 198.445312 100.675781 C 198.207031 99.839844 197.992188 98.996094 197.804688 98.148438 C 197.617188 97.296875 197.457031 96.445312 197.324219 95.585938 C 197.191406 94.726562 197.082031 93.863281 197.003906 92.996094 C 196.921875 92.128906 196.871094 91.261719 196.84375 90.394531 C 196.816406 89.523438 196.816406 88.65625 196.84375 87.785156 C 196.871094 86.917969 196.925781 86.050781 197.007812 85.183594 C 197.089844 84.316406 197.195312 83.453125 197.332031 82.59375 C 197.46875 81.738281 197.628906 80.882812 197.816406 80.03125 C 198.003906 79.183594 198.21875 78.339844 198.457031 77.503906 C 198.699219 76.667969 198.964844 75.839844 199.253906 75.023438 C 199.546875 74.203125 199.863281 73.394531 200.207031 72.59375 C 200.546875 71.792969 200.914062 71.003906 201.304688 70.226562 C 201.695312 69.449219 202.109375 68.683594 202.546875 67.933594 C 202.984375 67.183594 203.445312 66.445312 203.929688 65.722656 C 204.414062 65 204.921875 64.289062 205.449219 63.597656 C 205.976562 62.90625 206.527344 62.230469 207.09375 61.574219 C 207.664062 60.917969 208.253906 60.277344 208.863281 59.65625 C 209.472656 59.035156 210.101562 58.433594 210.75 57.847656 C 211.394531 57.265625 212.058594 56.703125 212.742188 56.164062 C 213.421875 55.621094 214.121094 55.101562 214.835938 54.601562 Z M 214.835938 54.601562 " fill-opacity="0.78" fill-rule="evenodd"/><path fill="#56ba48" d="M 162.359375 117.960938 C 163.519531 117.960938 164.671875 117.90625 165.824219 117.792969 C 166.976562 117.679688 168.121094 117.511719 169.257812 117.285156 C 170.390625 117.058594 171.515625 116.78125 172.621094 116.445312 C 173.730469 116.109375 174.820312 115.722656 175.886719 115.277344 C 176.957031 114.835938 178.003906 114.34375 179.023438 113.800781 C 180.046875 113.253906 181.039062 112.660156 182 112.019531 C 182.964844 111.378906 183.890625 110.691406 184.789062 109.957031 C 185.683594 109.226562 186.539062 108.449219 187.359375 107.632812 C 188.175781 106.816406 188.953125 105.960938 189.6875 105.066406 C 190.421875 104.175781 191.113281 103.246094 191.757812 102.285156 C 192.398438 101.324219 192.996094 100.335938 193.539062 99.316406 C 194.085938 98.296875 194.582031 97.253906 195.023438 96.1875 C 195.46875 95.117188 195.855469 94.03125 196.195312 92.925781 C 196.53125 91.820312 196.8125 90.699219 197.039062 89.566406 C 197.261719 88.433594 197.433594 87.292969 197.546875 86.140625 C 197.660156 84.992188 197.71875 83.839844 197.71875 82.683594 C 197.71875 81.527344 197.660156 80.375 197.546875 79.222656 C 197.433594 78.074219 197.265625 76.933594 197.039062 75.800781 C 196.8125 74.664062 196.535156 73.546875 196.199219 72.441406 C 195.863281 71.332031 195.472656 70.246094 195.03125 69.179688 C 194.585938 68.109375 194.09375 67.066406 193.546875 66.046875 C 193 65.027344 192.40625 64.039062 191.765625 63.078125 C 191.121094 62.117188 190.433594 61.1875 189.699219 60.296875 C 188.964844 59.402344 188.1875 58.546875 187.367188 57.730469 C 186.550781 56.914062 185.695312 56.136719 184.796875 55.402344 C 183.902344 54.671875 182.976562 53.984375 182.011719 53.339844 C 181.050781 52.699219 180.058594 52.105469 179.039062 51.558594 C 178.015625 51.015625 176.972656 50.519531 175.902344 50.078125 C 174.832031 49.636719 173.742188 49.246094 172.636719 48.910156 C 171.527344 48.574219 170.40625 48.296875 169.269531 48.070312 C 168.136719 47.84375 166.992188 47.675781 165.839844 47.5625 C 164.6875 47.449219 163.53125 47.390625 162.375 47.390625 C 161.21875 47.390625 160.0625 47.449219 158.910156 47.558594 C 157.757812 47.671875 156.613281 47.84375 155.476562 48.066406 C 154.34375 48.292969 153.222656 48.574219 152.113281 48.910156 C 151.003906 49.246094 149.917969 49.632812 148.847656 50.074219 C 147.777344 50.519531 146.730469 51.011719 145.710938 51.554688 C 144.691406 52.101562 143.699219 52.695312 142.734375 53.335938 C 141.773438 53.976562 140.84375 54.664062 139.949219 55.398438 C 139.054688 56.132812 138.195312 56.90625 137.378906 57.722656 C 136.558594 58.542969 135.785156 59.398438 135.046875 60.289062 C 134.3125 61.183594 133.625 62.109375 132.980469 63.070312 C 132.339844 64.03125 131.746094 65.023438 131.199219 66.042969 C 130.652344 67.0625 130.160156 68.105469 129.714844 69.171875 C 129.273438 70.238281 128.882812 71.328125 128.546875 72.433594 C 128.210938 73.539062 127.929688 74.660156 127.703125 75.792969 C 127.476562 76.925781 127.308594 78.066406 127.195312 79.21875 C 127.082031 80.367188 127.023438 81.519531 127.023438 82.675781 C 127.027344 83.832031 127.085938 84.984375 127.199219 86.132812 C 127.316406 87.28125 127.488281 88.421875 127.714844 89.554688 C 127.941406 90.6875 128.222656 91.804688 128.558594 92.910156 C 128.898438 94.015625 129.289062 95.101562 129.730469 96.167969 C 130.175781 97.234375 130.667969 98.277344 131.214844 99.292969 C 131.761719 100.3125 132.355469 101.300781 133 102.261719 C 133.640625 103.222656 134.332031 104.148438 135.066406 105.039062 C 135.796875 105.933594 136.574219 106.785156 137.390625 107.605469 C 138.210938 108.421875 139.066406 109.195312 139.960938 109.929688 C 140.855469 110.660156 141.78125 111.347656 142.742188 111.992188 C 143.703125 112.632812 144.695312 113.226562 145.714844 113.773438 C 146.734375 114.316406 147.777344 114.8125 148.847656 115.253906 C 149.914062 115.699219 151.003906 116.089844 152.109375 116.425781 C 153.214844 116.761719 154.335938 117.042969 155.46875 117.269531 C 156.605469 117.496094 157.746094 117.667969 158.898438 117.785156 C 160.050781 117.898438 161.203125 117.957031 162.359375 117.960938 Z M 162.359375 117.960938 " fill-opacity="0.78" fill-rule="evenodd"/></svg>